# Blender v2.77 (sub 0) OBJ File: ''
# www.blender.org
mtllib Apple.mtl
o fg_appleShape[0][0]_Untitled
v 3.117560 15.381500 0.796654
v 1.605260 17.219000 1.262145
v 2.189570 15.654499 3.020344
v 1.811810 6.432501 -4.995929
v -0.844120 3.695901 -4.307239
v -3.500140 6.517722 -4.301808
v -0.849937 9.249022 -5.033597
v 2.477930 9.302142 -4.601017
v -3.893960 1.673020 -0.677935
v -0.646057 1.447401 -2.515460
v -5.087700 3.990691 -1.906399
v -6.761770 7.035740 -0.082855
v -3.934190 9.405011 -3.763147
v -0.651867 11.516801 -3.796257
v 2.101430 11.606301 -3.067467
v -6.411720 4.580169 2.894531
v -6.062430 7.683108 5.189512
v -4.907320 2.124189 2.996541
v -2.107410 0.106859 0.927002
v -0.349640 -0.015245 -0.067457
v 3.056010 1.570900 -1.509650
v 3.992860 3.857261 -2.993099
v 6.062440 6.829990 -1.758608
v 6.411730 4.374420 1.218871
v 4.907330 1.966720 1.714041
v 2.655820 0.265806 2.221530
v 1.653900 0.746404 0.391569
v 0.000007 1.003229 2.483260
v -2.655820 1.045839 2.830300
v -1.653890 0.565245 4.660260
v 0.000007 1.003229 2.483260
v 0.349648 0.632081 5.204600
v 0.000007 1.003229 2.483260
v -3.056000 2.520008 6.220231
v 0.646065 2.643498 7.226041
v 3.893980 2.417879 5.388521
v 0.844128 5.258687 8.420642
v 5.087720 4.963899 6.019802
v 3.500150 7.995378 7.732712
v 6.761780 7.477349 3.513762
v -1.811800 8.080597 8.426833
v -3.992870 5.097328 7.106492
v 2.579130 12.899299 1.718884
v 1.342410 12.397499 3.376343
v 4.175150 12.370499 3.156484
v 3.020810 11.362198 6.432384
v 5.803410 10.378899 4.168733
v -0.841221 10.811797 7.693903
v -3.934190 10.655598 6.422303
v -1.503720 13.048899 2.937234
v -0.265812 12.682998 5.701374
v -3.010400 12.593398 4.971444
v -5.972190 10.331899 3.786113
v -4.431100 12.293499 2.529054
v -5.838530 10.540000 -0.263879
v -2.596110 12.035500 0.427827
v 0.000007 10.730600 1.288893
v -3.103890 11.689801 -2.387287
v -0.328812 12.510700 -1.446047
v -2.596110 12.035500 0.427827
v 0.000007 10.730600 1.288893
v 2.322940 11.951500 -0.255826
v 5.230030 10.357401 -1.751087
v 2.655820 0.265806 2.221530
v 4.907330 1.966720 1.714041
v 2.107400 1.204789 4.124830
v 0.000007 1.003229 2.483260
v 0.000007 1.003229 2.483260
v 5.230030 10.357401 -1.751087
v 2.322940 11.951500 -0.255826
v 4.665420 12.147500 1.340403
v 6.456540 10.081899 1.749423
v 6.062440 6.829990 -1.758608
v 6.411730 4.374420 1.218871
v 0.000007 10.730600 1.288893
v 1.673690 14.120700 0.613341
v 0.931301 14.339099 2.392294
v 0.758633 12.366800 0.711258
v 2.189570 15.654499 3.020344
v 3.117560 15.381500 0.796654
v 0.021415 15.106800 0.860523
v 1.605260 17.219000 1.262145
v -0.660713 12.639600 0.878790
v 0.201820 12.530699 2.045474
v -0.517391 10.299700 1.225903
v 0.073097 10.393499 1.989713
v 0.444302 10.284300 1.100233
vt 0.1008 0.9858
vt 0.1008 0.9858
vt 0.1008 0.9858
vt 0.1875 0.4312
vt 0.2500 0.3069
vt 0.3162 0.4312
vt 0.2500 0.5747
vt 0.1719 0.5747
vt 0.0625 0.4312
vt 0.1200 0.3069
vt 0.3691 0.1406
vt 0.2500 0.1406
vt 0.3750 0.3069
vt 0.4375 0.4312
vt 0.3281 0.5747
vt 0.2500 0.7466
vt 0.4688 0.5747
vt 0.3108 0.7476
vt 0.5000 0.3069
vt 0.5605 0.4312
vt 0.5469 0.5747
vt 0.4861 0.1385
vt 0.6230 0.3069
vt 0.6289 0.1406
vt 0.6875 0.4312
vt 0.6162 0.5747
vt 0.6250 0.7188
vt 0.5469 0.7188
vt 0.7119 0.5747
vt 0.7500 0.3069
vt 0.8125 0.4299
vt 0.8657 0.1406
vt 0.7354 0.1406
vt 0.8750 0.3069
vt 0.9375 0.4312
vt 0.9028 0.5747
vt 0.8076 0.6245
vt 0.7188 0.7188
vt 0.8750 0.7188
vt 0.7720 0.8779
vt 0.9600 0.5728
vt 1.0479 0.4312
vt 1.0000 0.3069
vt 1.0000 0.1406
vt 1.0000 0.0151
vt 0.8882 0.0151
vt 0.8882 0.0151
vt 0.7500 0.0151
vt 0.7969 0.0151
vt 0.6250 0.0151
vt 0.6929 0.0151
vt 0.5000 0.0151
vt 0.6909 0.0151
vt 0.3750 0.0151
vt 0.2500 0.0156
vt 0.2500 0.0151
vt 0.1200 0.0151
vt 0.0000 0.0151
vt 0.1266 0.1406
vt 0.0000 0.3069
vt 0.0000 0.1406
vt 0.0469 0.6250
vt 0.1840 0.7490
vt 0.1859 0.8623
vt 0.2500 0.8877
vt 0.3130 0.8633
vt 0.2449 0.9551
vt 0.5469 0.8779
vt 0.6235 0.8779
vt 0.6353 0.9351
vt 0.8975 0.8779
vt 0.8643 0.9351
vt 0.9331 0.7358
vt 0.9629 0.8779
vt 1.0244 0.6641
vt 0.3398 0.9219
vt 0.3398 0.9219
vt 0.3398 0.9219
vt 0.3398 0.9688
vt 0.3398 0.9688
vt 0.3398 0.9219
vt 0.3398 0.9219
vt 0.3398 0.9219
vt 0.3398 0.9219
vt 0.3398 0.9219
vt 0.3398 0.9219
vt 0.3398 0.9688
vn 0.7774 0.5755 0.2538
vn 0.2651 -0.1516 -0.9522
vn -0.1188 -0.4611 -0.8793
vn -0.5055 -0.1350 -0.8522
vn -0.1228 0.2311 -0.9651
vn 0.4017 0.2804 -0.8718
vn 0.7360 -0.1406 -0.6623
vn 0.5747 -0.4381 -0.6913
vn -0.6012 -0.7009 -0.3837
vn -0.0950 -0.7361 -0.6702
vn -0.7395 -0.4180 -0.5277
vn -0.9660 -0.0204 -0.2576
vn -0.6032 0.2985 -0.7396
vn -0.0787 0.7230 -0.6863
vn -0.7910 0.5452 -0.2777
vn -0.4191 0.8104 -0.4093
vn -0.9290 -0.3334 0.1607
vn -0.8684 0.0410 0.4941
vn -0.8686 0.4272 0.2512
vn -0.7305 -0.6605 0.1734
vn -0.5747 -0.2578 0.7767
vn -0.4663 -0.5709 0.6758
vn -0.2531 0.0984 0.9624
vn -0.5681 0.4482 0.6902
vn -0.3642 0.8531 0.3735
vn -0.5147 0.8560 -0.0492
vn -0.0670 0.5071 0.8593
vn 0.1188 -0.2347 0.9648
vn 0.4952 0.1223 0.8601
vn 0.5819 -0.6167 0.5301
vn 0.0950 -0.5521 0.8283
vn 0.7395 -0.2779 0.6131
vn 0.9649 -0.0019 0.2627
vn 0.7965 0.4472 0.4070
vn 0.3960 0.6657 0.6325
vn 0.0791 0.9111 0.4046
vn 0.4256 0.8753 0.2295
vn 0.0251 0.9984 -0.0511
vn 0.9209 0.3868 -0.0486
vn 0.9761 0.0851 -0.2002
vn 0.9577 -0.2595 0.1245
vn 0.7584 -0.5879 0.2813
vn 0.2296 -0.8941 0.3846
vn 0.2205 -0.9339 0.2816
vn -0.2120 -0.8993 0.3826
vn 0.1183 -0.9282 0.3526
vn 0.2161 -0.9633 -0.1591
vn -0.2225 -0.9396 0.2600
vn 0.0720 -0.9870 -0.1439
vn -0.2741 -0.9504 0.1472
vn -0.0457 -0.9721 -0.2303
vn -0.2514 -0.9673 0.0318
vn 0.0453 -0.9621 0.2689
vn 0.0539 -0.9886 -0.1409
vn 0.1657 -0.9809 -0.1017
vn 0.1464 -0.9669 -0.2088
vn 0.4510 -0.7426 -0.4951
vn 0.7812 -0.4886 -0.3886
vn 0.6816 -0.6628 -0.3100
vn 0.6215 0.4933 -0.6086
vn 0.3245 0.7994 -0.5057
vn 0.2203 0.9703 0.1002
vn 0.0182 0.9998 0.0112
vn -0.1532 0.9771 0.1480
vn 0.0895 0.8396 0.5357
vn -0.0014 0.9039 -0.4277
vn 0.0854 0.9687 -0.2329
vn 0.3918 0.6883 -0.6106
vn -0.1201 0.9822 -0.1441
vn -0.5972 0.7607 -0.2544
vn 0.5339 0.8264 -0.1792
vn -0.1050 0.9002 -0.4225
vn 0.7643 0.5390 -0.3540
vn 0.5786 -0.4348 -0.6900
vn -0.1126 -0.2315 0.9663
vn 0.6907 -0.3088 -0.6538
vn -0.1741 -0.2686 0.9474
vn 0.5186 -0.4724 -0.7127
vn -0.8124 0.4316 -0.3920
vn -0.9180 0.0651 -0.3911
vn 0.0029 -0.1065 0.9943
vn 0.7685 -0.2277 -0.5980
vn -0.9211 -0.1235 -0.3692
vn 0.1040 -0.0322 0.9941
vn -0.7084 0.6014 -0.3695
usemtl t_fg_apple
s 1
f 1/1/1 2/2/1 3/3/1
f 4/4/2 5/5/3 6/6/4
f 7/7/5 4/4/2 6/6/4
f 8/8/6 4/4/2 7/7/5
f 8/8/6 23/9/7 4/4/2
f 23/9/7 22/10/8 4/4/2
f 4/4/2 22/10/8 5/5/3
f 9/11/9 5/5/3 10/12/10
f 11/13/11 5/5/3 9/11/9
f 6/6/4 5/5/3 11/13/11
f 5/5/3 22/10/8 10/12/10
f 6/6/4 11/13/11 12/14/12
f 6/6/4 12/14/12 13/15/13
f 6/6/4 13/15/13 7/7/5
f 7/7/5 13/15/13 14/16/14
f 8/8/6 7/7/5 14/16/14
f 13/15/13 12/14/12 55/17/15
f 58/18/16 13/15/13 55/17/15
f 14/16/14 13/15/13 58/18/16
f 12/14/12 16/19/17 17/20/18
f 12/14/12 11/13/11 16/19/17
f 53/21/19 12/14/12 17/20/18
f 12/14/12 53/21/19 55/17/15
f 16/19/17 11/13/11 18/22/20
f 18/22/20 11/13/11 9/11/9
f 17/20/18 16/19/17 42/23/21
f 42/23/21 16/19/17 34/24/22
f 34/24/22 16/19/17 18/22/20
f 17/20/18 42/23/21 41/25/23
f 49/26/24 17/20/18 41/25/23
f 53/21/19 17/20/18 49/26/24
f 53/21/19 49/26/24 52/27/25
f 53/21/19 52/27/25 54/28/26
f 55/17/15 53/21/19 54/28/26
f 41/25/23 48/29/27 49/26/24
f 49/26/24 48/29/27 52/27/25
f 41/25/23 37/30/28 39/31/29
f 41/25/23 42/23/21 37/30/28
f 41/25/23 39/31/29 48/29/27
f 37/30/28 42/23/21 34/24/22
f 36/32/30 37/30/28 35/33/31
f 38/34/32 37/30/28 36/32/30
f 39/31/29 37/30/28 38/34/32
f 37/30/28 34/24/22 35/33/31
f 39/31/29 38/34/32 40/35/33
f 39/31/29 47/36/34 46/37/35
f 48/29/27 39/31/29 46/37/35
f 40/35/33 47/36/34 39/31/29
f 51/38/36 48/29/27 46/37/35
f 52/27/25 48/29/27 51/38/36
f 46/37/35 45/39/37 44/40/38
f 46/37/35 47/36/34 45/39/37
f 46/37/35 44/40/38 51/38/36
f 40/35/33 72/41/39 47/36/34
f 47/36/34 72/41/39 45/39/37
f 40/35/33 73/42/40 72/41/39
f 40/35/33 74/43/41 73/42/40
f 40/35/33 38/34/32 74/43/41
f 74/43/41 38/34/32 65/44/42
f 65/44/42 38/34/32 36/32/30
f 36/32/30 64/45/43 65/44/42
f 66/46/44 64/45/43 36/32/30
f 64/45/43 66/46/44 68/47/45
f 32/48/46 66/46/44 36/32/30
f 66/46/44 32/48/46 67/49/47
f 32/48/46 36/32/30 35/33/31
f 32/48/46 30/50/48 33/51/49
f 32/48/46 34/24/22 30/50/48
f 35/33/31 34/24/22 32/48/46
f 29/52/50 30/50/48 18/22/20
f 30/50/48 29/52/50 31/53/51
f 18/22/20 30/50/48 34/24/22
f 29/52/50 19/54/52 28/55/53
f 19/54/52 29/52/50 18/22/20
f 19/54/52 18/22/20 9/11/9
f 9/11/9 10/12/10 19/54/52
f 19/54/52 10/12/10 20/56/54
f 19/54/52 20/56/54 28/55/53
f 27/57/55 26/58/56 28/55/53
f 20/56/54 27/57/55 28/55/53
f 21/59/57 20/56/54 10/12/10
f 27/57/55 20/56/54 21/59/57
f 10/12/10 22/10/8 21/59/57
f 22/10/8 24/60/58 21/59/57
f 21/59/57 24/60/58 25/61/59
f 26/58/56 21/59/57 25/61/59
f 26/58/56 27/57/55 21/59/57
f 23/9/7 24/60/58 22/10/8
f 23/9/7 8/8/6 63/62/60
f 8/8/6 14/16/14 15/63/61
f 63/62/60 8/8/6 15/63/61
f 63/62/60 15/63/61 62/64/62
f 59/65/63 15/63/61 14/16/14
f 59/65/63 62/64/62 15/63/61
f 58/18/16 59/65/63 14/16/14
f 58/18/16 60/66/64 59/65/63
f 60/66/64 61/67/65 59/65/63
f 59/65/63 61/67/65 62/64/62
f 55/17/15 60/66/64 58/18/16
f 55/17/15 54/28/26 56/68/66
f 52/27/25 50/69/67 54/28/26
f 50/69/67 56/68/66 54/28/26
f 50/69/67 57/70/68 56/68/66
f 44/40/38 50/69/67 51/38/36
f 51/38/36 50/69/67 52/27/25
f 57/70/68 50/69/67 44/40/38
f 43/71/69 44/40/38 45/39/37
f 44/40/38 43/71/69 75/72/70
f 71/73/71 43/71/69 45/39/37
f 70/74/72 43/71/69 71/73/71
f 43/71/69 70/74/72 75/72/70
f 45/39/37 72/41/39 71/73/71
f 69/75/73 70/74/72 71/73/71
f 71/73/71 72/41/39 69/75/73
f 72/41/39 73/42/40 69/75/73
f 76/76/74 77/77/75 78/78/76
f 76/76/74 79/79/77 77/77/75
f 80/80/78 79/79/77 76/76/74
f 81/81/79 80/80/78 76/76/74
f 83/82/80 76/76/74 78/78/76
f 81/81/79 76/76/74 83/82/80
f 79/79/77 81/81/79 77/77/75
f 81/81/79 83/82/80 77/77/75
f 78/78/76 77/77/75 84/83/81
f 77/77/75 83/82/80 84/83/81
f 78/78/76 84/83/81 87/84/82
f 85/85/83 78/78/76 87/84/82
f 83/82/80 78/78/76 85/85/83
f 83/82/80 85/85/83 84/83/81
f 84/83/81 85/85/83 86/86/84
f 87/84/82 84/83/81 86/86/84
f 82/87/85 80/80/78 81/81/79
f 82/87/85 81/81/79 79/79/77
