# 3ds Max Wavefront OBJ Exporter v0.99 - (c)2007 guruware
# File Created: 07.10.2023 20:04:47

mtllib Dado Animales.mtl

#
# object Dado
#

v  -5.9598 0.5179 5.9494
v  -5.9598 0.5179 -6.0506
v  6.0402 0.5179 -6.0506
v  6.0402 0.5179 5.9494
v  -5.9598 12.5179 5.9494
v  6.0402 12.5179 5.9494
v  6.0402 12.5179 -6.0506
v  -5.9598 12.5179 -6.0506
# 8 vertices

vn -0.5774 -0.5774 0.5774
vn -0.5774 -0.5774 -0.5774
vn 0.5774 -0.5774 -0.5774
vn 0.5774 -0.5774 0.5774
vn -0.5774 0.5774 0.5774
vn 0.5774 0.5774 0.5774
vn 0.5774 0.5774 -0.5774
vn -0.5774 0.5774 -0.5774
# 8 vertex normals

vt 0.5102 0.3169 0.0000
vt 0.5102 0.0169 0.0000
vt 0.7384 0.0169 0.0000
vt 0.7384 0.3169 0.0000
vt 0.5189 0.6880 0.0000
vt 0.7335 0.6880 0.0000
vt 0.7335 0.9673 0.0000
vt 0.5189 0.9673 0.0000
vt 0.5450 0.4003 0.0000
vt 0.6950 0.4003 0.0000
vt 0.6950 0.5888 0.0000
vt 0.5450 0.5888 0.0000
vt 0.7695 0.3662 0.0000
vt 0.9735 0.3662 0.0000
vt 0.9735 0.6318 0.0000
vt 0.7695 0.6318 0.0000
vt 0.0105 0.3763 0.0000
vt 0.2415 0.3763 0.0000
vt 0.2415 0.6165 0.0000
vt 0.0105 0.6165 0.0000
vt 0.2635 0.3473 0.0000
vt 0.4817 0.3473 0.0000
vt 0.4817 0.6446 0.0000
vt 0.2635 0.6446 0.0000
# 24 texture coords

o Dado
g Dado
usemtl 01___Default
s 2
f 1/1/1 2/2/2 3/3/3 4/4/4 
s 4
f 5/5/5 6/6/6 7/7/7 8/8/8 
s 8
f 1/9/1 4/10/4 6/11/6 5/12/5 
s 16
f 4/13/4 3/14/3 7/15/7 6/16/6 
s 32
f 3/17/3 2/18/2 8/19/8 7/20/7 
s 64
f 2/21/2 1/22/1 5/23/5 8/24/8 
# 6 polygons

