# Blender v2.79 (sub 0) OBJ File: ''
# www.blender.org
mtllib Hell eye.mtl
o Mesh_0347.rip.013
v 0.098633 0.340943 0.212036
v 0.075500 0.375611 0.212036
v 0.000000 0.406861 0.212036
v -0.040833 0.398744 0.212036
v -0.098633 0.340943 0.212036
v -0.106750 0.300111 0.212036
v -0.075500 0.224610 0.212036
v -0.040833 0.201478 0.212036
v 0.040833 0.201478 0.212036
v 0.000000 0.304689 0.245483
v 0.075500 0.224610 0.212036
v 0.098633 0.259217 0.212036
v -0.163269 0.137818 0.056519
v -0.071411 0.087586 0.044617
v -0.163269 0.233216 0.137634
v -0.163269 0.368470 0.137634
v 0.163269 0.464173 0.056519
v 0.230957 0.300843 0.056519
v 0.067627 0.137513 -0.148987
v 0.176758 0.300843 0.137634
v 0.112122 0.414186 0.172302
v 0.163269 0.368470 0.137634
v 0.124939 0.425843 0.137634
v 0.067627 0.464173 0.137634
v 0.000000 0.477601 0.137634
v 0.060669 0.448548 0.172302
v -0.067627 0.464173 0.137634
v -0.125000 0.425843 0.137634
v -0.060669 0.448548 0.172302
v -0.112122 0.414186 0.172302
v -0.158569 0.302064 0.172302
v -0.146484 0.362733 0.172302
v -0.146484 0.241395 0.172302
v -0.176758 0.300843 0.137634
v -0.124939 0.175843 0.137634
v -0.067627 0.137513 0.137634
v -0.060669 0.155580 0.172302
v 0.112122 0.189942 0.172302
v 0.067627 0.137513 0.137634
v 0.060669 0.155580 0.172302
v 0.125000 0.175843 0.137634
v 0.163269 0.233216 0.137634
v -0.213379 0.212586 -0.067932
v -0.213379 0.212586 0.056519
v -0.163269 0.137818 -0.067932
v -0.071411 0.087586 -0.055969
v 0.163269 0.137818 0.056519
v 0.163269 0.137818 -0.067932
v 0.071411 0.087586 0.044617
v 0.213379 0.212586 -0.067932
v 0.213379 0.212586 0.056519
v 0.230957 0.300843 -0.067932
v 0.213379 0.389222 0.056519
v 0.088379 0.514222 0.056519
v 0.000000 0.531800 0.056519
v -0.088379 0.514222 0.056519
v -0.163269 0.464173 0.056519
v -0.213379 0.389222 0.056519
v -0.230957 0.300843 0.056519
v -0.230957 0.300843 -0.067932
v 0.106750 0.300111 0.212036
v 0.146484 0.362733 0.172302
v 0.146484 0.241395 0.172302
v 0.158569 0.302064 0.172302
v -0.112122 0.189942 0.172302
v -0.098633 0.259217 0.212036
v -0.075500 0.375611 0.212036
v 0.000000 0.460633 0.172302
v 0.040833 0.398744 0.212036
v -0.067627 0.137513 -0.148987
v -0.124939 0.175843 -0.148987
v 0.163269 0.368470 -0.148987
v 0.176758 0.300843 -0.148987
v 0.124939 0.175843 -0.148987
v 0.071411 0.087586 -0.055969
v 0.163269 0.233216 -0.148987
v 0.213379 0.389222 -0.067932
v 0.124939 0.425843 -0.148987
v 0.163269 0.464173 -0.067932
v 0.067627 0.464173 -0.148987
v 0.088379 0.514222 -0.067932
v -0.067627 0.464173 -0.148987
v -0.013367 0.369874 -0.206970
v -0.125000 0.425843 -0.148987
v -0.163269 0.368470 -0.148987
v -0.163269 0.464173 -0.067932
v -0.213379 0.389222 -0.067932
v -0.176758 0.300843 -0.148987
v -0.067322 0.315919 -0.206970
v -0.064636 0.275758 -0.206970
v -0.163269 0.233216 -0.148987
v 0.000000 0.531800 -0.067932
v -0.088379 0.514222 -0.067932
v 0.000000 0.477601 -0.148987
v 0.076172 0.303224 -0.239197
v 0.061951 0.345277 -0.236816
v 0.026733 0.367189 -0.206970
v 0.057068 0.340699 -0.206970
v 0.028564 0.374391 -0.234070
v -0.015747 0.377076 -0.231750
v -0.049438 0.352052 -0.206970
v -0.055542 0.357240 -0.230591
v -0.075195 0.317262 -0.231201
v -0.072266 0.272889 -0.233154
v -0.038086 0.245484 -0.206970
v 0.026733 0.237855 -0.206970
v -0.043030 0.239625 -0.235901
v 0.057068 0.264405 -0.206970
v 0.069946 0.302552 -0.206970
v -0.029663 0.348388 -0.675963
v -0.039002 0.327209 -0.676086
v -0.005982 0.325317 -0.654296
v 0.010376 0.287414 -0.645629
v -0.054993 0.355531 -0.321045
v -0.067444 0.291200 -0.325744
v -0.044861 0.267701 -0.333496
v 0.028564 0.231568 -0.239746
v 0.061951 0.261048 -0.240173
v 0.031067 0.285279 -0.348205
v 0.031067 0.347718 -0.341003
v 0.000550 0.330933 -0.442932
v 0.007446 0.369996 -0.333191
v -0.032531 0.381226 -0.431091
v -0.025146 0.369996 -0.325988
v -0.091064 0.367615 -0.421814
v -0.068237 0.324708 -0.321716
v -0.032532 0.278687 -0.442688
v 0.007446 0.261476 -0.345764
v 0.042847 0.316712 -0.347168
v -0.008117 0.361573 -0.437866
v 0.000732 0.341736 -0.548461
v -0.008057 0.368286 -0.551330
v -0.028747 0.386292 -0.556457
v -0.056152 0.387390 -0.562438
v -0.063598 0.383851 -0.425049
v -0.106140 0.338746 -0.422241
v -0.102661 0.306763 -0.426514
v -0.083130 0.281983 -0.432922
v -0.091187 0.320191 -0.567687
v -0.073059 0.299439 -0.563049
v -0.008056 0.299561 -0.444885
v -0.008057 0.314698 -0.549438
v 0.026306 0.346802 -0.650207
v 0.010376 0.360412 -0.660155
v -0.010681 0.360107 -0.669677
v -0.093018 0.348389 -0.569091
v -0.080810 0.374085 -0.567321
v -0.037598 0.304626 -0.670959
v -0.023682 0.288757 -0.661437
v -0.028748 0.295410 -0.553283
v 0.026306 0.303772 -0.641662
v 0.033081 0.325867 -0.642944
vt 0.698242 0.294922
vt 0.736328 0.288086
vt 0.704102 0.206055
vt 0.768555 0.269531
vt 0.790039 0.240234
vt 0.797852 0.206055
vt 0.790039 0.172852
vt 0.768555 0.143555
vt 0.737305 0.125000
vt 0.699219 0.118164
vt 0.661133 0.124023
vt 0.628906 0.143555
vt 0.607422 0.171875
vt 0.607422 0.240234
vt 0.628906 0.268555
vt 0.661133 0.288086
vt 0.545898 0.070313
vt 0.583008 0.102539
vt 0.615234 0.029297
vt 0.499023 0.132813
vt 0.614258 0.382813
vt 0.582031 0.309570
vt 0.545898 0.341797
vt 0.579102 0.900391
vt 0.552734 0.803711
vt 0.501953 0.854492
vt 0.501953 0.551758
vt 0.552734 0.596680
vt 0.579102 0.504883
vt 0.449219 0.621094
vt 0.635742 0.070313
vt 0.698242 0.059570
vt 0.546875 0.261719
vt 0.499023 0.279297
vt 0.546875 0.149414
vt 0.697266 0.014648
vt 0.761719 0.071289
vt 0.779297 0.029297
vt 0.814453 0.102539
vt 0.848633 0.071289
vt 0.849609 0.150391
vt 0.895508 0.133789
vt 0.862305 0.207031
vt 0.911133 0.207031
vt 0.849609 0.262695
vt 0.894531 0.280273
vt 0.814453 0.310547
vt 0.847656 0.341797
vt 0.760742 0.341797
vt 0.778320 0.383789
vt 0.698242 0.352539
vt 0.696289 0.397461
vt 0.635742 0.341797
vt 0.449219 0.785156
vt 0.516602 0.755859
vt 0.516602 0.643555
vt 0.608398 0.677734
vt 0.632813 0.652344
vt 0.755859 0.328125
vt 0.699219 0.337891
vt 0.803711 0.299805
vt 0.835938 0.256836
vt 0.846680 0.207031
vt 0.835938 0.156250
vt 0.803711 0.113281
vt 0.756836 0.084961
vt 0.700195 0.075195
vt 0.643555 0.084961
vt 0.596680 0.113281
vt 0.564453 0.155273
vt 0.564453 0.256836
vt 0.595703 0.298828
vt 0.643555 0.328125
vt 0.447266 0.901367
vt 0.549805 0.962891
vt 0.377930 0.808594
vt 0.377930 0.590820
vt 0.447266 0.499023
vt 0.549805 0.437500
vt 0.671875 0.416016
vt 0.669922 0.489258
vt 0.792969 0.437500
vt 0.761719 0.504883
vt 0.896484 0.499023
vt 0.839844 0.551758
vt 0.964844 0.590820
vt 0.891602 0.621094
vt 0.989258 0.700195
vt 0.909180 0.703125
vt 0.964844 0.808594
vt 0.891602 0.785156
vt 0.896484 0.901367
vt 0.839844 0.854492
vt 0.792969 0.962891
vt 0.751953 0.876953
vt 0.671875 0.984375
vt 0.669922 0.891602
vt 0.615234 0.731445
vt 0.605469 0.835938
vt 0.784180 0.596680
vt 0.731445 0.564453
vt 0.704102 0.652344
vt 0.667969 0.553711
vt 0.668945 0.641602
vt 0.605469 0.564453
vt 0.728516 0.677734
vt 0.819336 0.643555
vt 0.731445 0.710938
vt 0.832031 0.700195
vt 0.714844 0.741211
vt 0.819336 0.755859
vt 0.784180 0.803711
vt 0.680664 0.755859
vt 0.731445 0.835938
vt 0.667969 0.846680
vt 0.643555 0.753906
vt 0.449219 0.455078
vt 0.449219 0.436523
vt 0.422852 0.442383
vt 0.422852 0.458984
vt 0.449219 0.470703
vt 0.422852 0.470703
vt 0.449219 0.222656
vt 0.449219 0.194336
vt 0.422852 0.194336
vt 0.422852 0.219727
vt 0.449219 0.252930
vt 0.422852 0.247070
vt 0.449219 0.284180
vt 0.422852 0.278320
vt 0.449219 0.310547
vt 0.422852 0.305664
vt 0.449219 0.337891
vt 0.422852 0.336914
vt 0.449219 0.379883
vt 0.422852 0.384766
vt 0.449219 0.409180
vt 0.422852 0.415039
vt 0.235352 0.626953
vt 0.251953 0.639648
vt 0.269531 0.597656
vt 0.228516 0.608398
vt 0.235352 0.590820
vt 0.229492 0.608398
vt 0.250977 0.577148
vt 0.272461 0.576172
vt 0.291992 0.583984
vt 0.301758 0.601563
vt 0.291992 0.631836
vt 0.273438 0.640625
vt 0.292969 0.632813
vt 0.329102 0.427734
vt 0.329102 0.449219
vt 0.329102 0.469727
vt 0.329102 0.194336
vt 0.329102 0.227539
vt 0.329102 0.260742
vt 0.329102 0.293945
vt 0.329102 0.316406
vt 0.329102 0.339844
vt 0.329102 0.373047
vt 0.329102 0.399414
vt 0.230469 0.424805
vt 0.230469 0.449219
vt 0.230469 0.469727
vt 0.230469 0.194336
vt 0.230469 0.227539
vt 0.230469 0.263672
vt 0.230469 0.293945
vt 0.230469 0.318359
vt 0.230469 0.339844
vt 0.230469 0.371094
vt 0.230469 0.399414
vt 0.113281 0.419922
vt 0.113281 0.445313
vt 0.113281 0.469727
vt 0.113281 0.193359
vt 0.113281 0.231445
vt 0.113281 0.267578
vt 0.113281 0.299805
vt 0.113281 0.322266
vt 0.113281 0.341797
vt 0.113281 0.367188
vt 0.113281 0.392578
vt 0.009766 0.413086
vt 0.009766 0.441406
vt 0.009766 0.469727
vt 0.009766 0.237305
vt 0.009766 0.274414
vt 0.009766 0.307617
vt 0.009766 0.327148
vt 0.009766 0.342773
vt 0.009766 0.362305
vt 0.009766 0.384766
vt 0.009766 0.196289
vn 0.4908 0.0245 0.8709
vn 0.4426 0.2093 0.8720
vn -0.0000 0.0254 0.9997
vn 0.3277 0.3617 0.8728
vn 0.1641 0.4588 0.8732
vn -0.0239 0.4866 0.8733
vn -0.2084 0.4410 0.8730
vn -0.3624 0.3282 0.8723
vn -0.4621 0.1649 0.8713
vn -0.4921 -0.0247 0.8702
vn -0.4471 -0.2121 0.8690
vn -0.3327 -0.3685 0.8681
vn -0.1055 -0.4913 0.8646
vn 0.1773 -0.4637 0.8681
vn 0.3675 -0.3325 0.8686
vn 0.4648 -0.1659 0.8697
vn -0.6839 -0.6922 0.2307
vn -0.5764 -0.6416 0.5060
vn -0.8822 -0.3340 0.3320
vn -0.3213 -0.9128 0.2523
vn 0.8576 -0.4245 0.2903
vn 0.6128 -0.6072 0.5057
vn 0.6079 -0.7599 0.2302
vn -0.8575 -0.4246 -0.2905
vn -0.5076 -0.5447 -0.6676
vn -0.6078 -0.7599 -0.2305
vn 0.6838 -0.6922 -0.2308
vn 0.5085 -0.5439 -0.6676
vn 0.8821 -0.3340 -0.3321
vn 0.3212 -0.9128 -0.2523
vn -0.7821 -0.3617 0.5074
vn -0.8578 -0.0567 0.5108
vn 0.3056 -0.8230 0.4788
vn 0.2029 -0.9358 0.2883
vn -0.1704 -0.8625 0.4766
vn -0.9547 0.0633 0.2906
vn -0.8169 0.2767 0.5061
vn -0.8578 0.4238 0.2906
vn -0.6506 0.5696 0.5022
vn -0.6303 0.7200 0.2904
vn -0.3836 0.7768 0.4994
vn -0.3068 0.9063 0.2905
vn -0.0574 0.8653 0.4980
vn 0.0632 0.9548 0.2905
vn 0.2779 0.8209 0.4988
vn 0.4239 0.8578 0.2905
vn 0.5701 0.6512 0.5009
vn 0.7198 0.6304 0.2906
vn 0.7739 0.3828 0.5046
vn 0.9062 0.3070 0.2907
vn 0.8587 0.0572 0.5092
vn 0.9547 -0.0635 0.2906
vn 0.8128 -0.2750 0.5136
vn -0.2029 -0.9358 -0.2884
vn -0.1754 -0.6371 -0.7506
vn 0.1937 -0.6734 -0.7134
vn 0.1542 -0.8806 -0.4481
vn 0.6550 -0.5309 -0.5377
vn 0.7257 0.2458 0.6427
vn 0.7632 -0.0507 0.6441
vn 0.5773 0.5054 0.6413
vn 0.3401 0.6883 0.6407
vn 0.0507 0.7664 0.6403
vn -0.2462 0.7273 0.6406
vn -0.5054 0.5772 0.6414
vn -0.6873 0.3393 0.6423
vn -0.7636 0.0507 0.6437
vn -0.7239 -0.2452 0.6449
vn -0.5744 -0.5030 0.6459
vn -0.2910 -0.7035 0.6483
vn 0.1454 -0.7532 0.6415
vn 0.5025 -0.5740 0.6466
vn 0.6849 -0.3384 0.6453
vn 0.9547 0.0633 -0.2908
vn 0.8577 0.4239 -0.2908
vn 0.6303 0.7198 -0.2907
vn 0.3069 0.9063 -0.2907
vn -0.0632 0.9547 -0.2907
vn -0.4239 0.8578 -0.2906
vn -0.7199 0.6303 -0.2907
vn -0.9062 0.3070 -0.2908
vn -0.9547 -0.0635 -0.2907
vn -0.4947 -0.6954 -0.5213
vn -0.6192 -0.2551 -0.7427
vn 0.4918 0.4597 -0.7395
vn 0.6651 0.2398 -0.7072
vn 0.7501 0.4029 -0.5245
vn 0.6710 -0.0012 -0.7415
vn 0.8905 -0.0857 -0.4468
vn 0.5868 -0.2361 -0.7745
vn 0.4292 0.8024 -0.4147
vn 0.2585 0.6216 -0.7395
vn -0.0865 0.8634 -0.4970
vn 0.0331 0.7074 -0.7060
vn -0.5864 0.7128 -0.3847
vn -0.2364 0.6309 -0.7390
vn -0.4747 0.4762 -0.7402
vn -0.8366 0.2490 -0.4879
vn -0.6397 0.3010 -0.7072
vn -0.6710 0.0229 -0.7411
vn -0.8784 -0.2729 -0.3924
vn 0.9983 0.0006 -0.0585
vn 0.8228 0.5683 -0.0026
vn 0.3821 0.9217 0.0663
vn -0.2052 0.9709 0.1233
vn -0.6970 0.7006 0.1524
vn -0.9739 0.1839 0.1328
vn -0.9227 -0.3741 0.0930
vn -0.4638 -0.8859 0.0073
vn 0.2886 -0.9558 -0.0569
vn 0.8348 -0.5440 -0.0842
vn 0.8055 0.4006 -0.4368
vn 0.9522 0.0202 -0.3047
vn 0.4071 -0.1887 -0.8937
vn 0.4485 0.6256 -0.6383
vn 0.0500 0.6044 -0.7951
vn -0.2988 0.3223 -0.8982
vn -0.4512 -0.0770 -0.8891
vn -0.3515 -0.5220 -0.7771
vn 0.0308 -0.8277 -0.5603
vn 0.5696 -0.7477 -0.3412
vn 0.8703 -0.4256 -0.2480
vn 0.9375 0.0445 -0.3450
vn 0.7859 0.5702 -0.2392
vn 0.3464 0.9338 -0.0894
vn -0.2002 0.9778 0.0622
vn -0.7120 0.6865 0.1474
vn -0.9707 0.1826 0.1565
vn -0.9128 -0.4024 0.0701
vn -0.4682 -0.8800 -0.0796
vn 0.2785 -0.9194 -0.2776
vn 0.7771 -0.5161 -0.3603
vn 0.9802 0.0320 -0.1956
vn 0.8225 0.5610 -0.0936
vn 0.3673 0.9295 0.0334
vn -0.1973 0.9726 0.1229
vn -0.7137 0.6799 0.1683
vn -0.9724 0.1807 0.1478
vn -0.9151 -0.3990 0.0587
vn -0.4685 -0.8799 -0.0792
vn 0.2954 -0.9281 -0.2265
vn 0.8137 -0.5267 -0.2458
vn 0.9845 0.0086 0.1755
vn 0.8116 0.5728 0.1148
vn 0.3767 0.9263 0.0026
vn -0.2042 0.9695 -0.1354
vn -0.6836 0.6911 -0.2350
vn -0.9443 0.1671 -0.2836
vn -0.8808 -0.3939 -0.2625
vn -0.4150 -0.8959 -0.1587
vn 0.3147 -0.9490 0.0162
vn 0.8349 -0.5303 0.1472
usemtl Mesh_0347.rip.013
s 1
f 61/1/1 1/2/2 10/3/3
f 1/2/2 2/4/4 10/3/3
f 2/4/4 69/5/5 10/3/3
f 69/5/5 3/6/6 10/3/3
f 3/6/6 4/7/7 10/3/3
f 4/7/7 67/8/8 10/3/3
f 67/8/8 5/9/9 10/3/3
f 5/9/9 6/10/10 10/3/3
f 6/10/10 66/11/11 10/3/3
f 66/11/11 7/12/12 10/3/3
f 7/12/12 8/13/13 10/3/3
f 8/13/13 9/14/14 10/3/3
f 9/14/14 11/15/15 10/3/3
f 11/15/15 12/16/16 10/3/3
f 12/16/16 61/1/1 10/3/3
f 13/17/17 35/18/18 44/19/19
f 35/18/18 13/17/17 14/20/20
f 51/21/21 41/22/22 47/23/23
f 43/24/24 71/25/25 45/26/26
f 48/27/27 74/28/28 50/29/29
f 74/28/28 48/27/27 75/30/30
f 15/31/31 44/19/19 35/18/18
f 34/32/32 44/19/19 15/31/31
f 39/33/33 49/34/34 41/22/22
f 36/35/35 49/34/34 39/33/33
f 36/35/35 14/20/20 49/34/34
f 35/18/18 14/20/20 36/35/35
f 41/22/22 49/34/34 47/23/23
f 34/32/32 59/36/36 44/19/19
f 16/37/37 59/36/36 34/32/32
f 16/37/37 58/38/38 59/36/36
f 28/39/39 58/38/38 16/37/37
f 28/39/39 57/40/40 58/38/38
f 27/41/41 57/40/40 28/39/39
f 27/41/41 56/42/42 57/40/40
f 25/43/43 56/42/42 27/41/41
f 25/43/43 55/44/44 56/42/42
f 24/45/45 55/44/44 25/43/43
f 24/45/45 54/46/46 55/44/44
f 23/47/47 54/46/46 24/45/45
f 23/47/47 17/48/48 54/46/46
f 22/49/49 17/48/48 23/47/47
f 22/49/49 53/50/50 17/48/48
f 20/51/51 53/50/50 22/49/49
f 20/51/51 18/52/52 53/50/50
f 42/53/53 18/52/52 20/51/51
f 42/53/53 51/21/21 18/52/52
f 41/22/22 51/21/21 42/53/53
f 71/25/25 46/54/54 45/26/26
f 70/55/55 46/54/54 71/25/25
f 70/55/55 19/56/56 46/54/54
f 106/57/57 19/56/56 70/55/55
f 106/57/57 108/58/58 19/56/56
f 62/59/59 20/51/51 22/49/49
f 64/60/60 20/51/51 62/59/59
f 21/61/61 22/49/49 23/47/47
f 62/59/59 22/49/49 21/61/61
f 26/62/62 23/47/47 24/45/45
f 21/61/61 23/47/47 26/62/62
f 68/63/63 24/45/45 25/43/43
f 26/62/62 24/45/45 68/63/63
f 29/64/64 25/43/43 27/41/41
f 68/63/63 25/43/43 29/64/64
f 30/65/65 27/41/41 28/39/39
f 29/64/64 27/41/41 30/65/65
f 32/66/66 28/39/39 16/37/37
f 30/65/65 28/39/39 32/66/66
f 31/67/67 16/37/37 34/32/32
f 32/66/66 16/37/37 31/67/67
f 33/68/68 34/32/32 15/31/31
f 31/67/67 34/32/32 33/68/68
f 65/69/69 15/31/31 35/18/18
f 33/68/68 15/31/31 65/69/69
f 37/70/70 35/18/18 36/35/35
f 65/69/69 35/18/18 37/70/70
f 40/71/71 36/35/35 39/33/33
f 37/70/70 36/35/35 40/71/71
f 38/72/72 39/33/33 41/22/22
f 40/71/71 39/33/33 38/72/72
f 63/73/73 41/22/22 42/53/53
f 38/72/72 41/22/22 63/73/73
f 64/60/60 42/53/53 20/51/51
f 63/73/73 42/53/53 64/60/60
f 43/24/24 13/74/17 44/75/19
f 45/26/26 13/74/17 43/24/24
f 45/26/26 14/76/20 13/74/17
f 46/54/54 14/76/20 45/26/26
f 46/54/54 49/77/34 14/76/20
f 75/30/30 49/77/34 46/54/54
f 47/78/23 75/30/30 48/27/27
f 49/77/34 75/30/30 47/78/23
f 51/79/21 48/27/27 50/29/29
f 47/78/23 48/27/27 51/79/21
f 50/29/29 18/80/52 51/79/21
f 52/81/74 18/80/52 50/29/29
f 52/81/74 53/82/50 18/80/52
f 77/83/75 53/82/50 52/81/74
f 77/83/75 17/84/48 53/82/50
f 79/85/76 17/84/48 77/83/75
f 79/85/76 54/86/46 17/84/48
f 81/87/77 54/86/46 79/85/76
f 81/87/77 55/88/44 54/86/46
f 92/89/78 55/88/44 81/87/77
f 92/89/78 56/90/42 55/88/44
f 93/91/79 56/90/42 92/89/78
f 93/91/79 57/92/40 56/90/42
f 86/93/80 57/92/40 93/91/79
f 86/93/80 58/94/38 57/92/40
f 87/95/81 58/94/38 86/93/80
f 87/95/81 59/96/36 58/94/38
f 60/97/82 59/96/36 87/95/81
f 60/97/82 44/75/19 59/96/36
f 43/24/24 44/75/19 60/97/82
f 61/1/1 64/60/60 62/59/59
f 12/16/16 64/60/60 61/1/1
f 12/16/16 63/73/73 64/60/60
f 11/15/15 63/73/73 12/16/16
f 11/15/15 38/72/72 63/73/73
f 9/14/14 38/72/72 11/15/15
f 9/14/14 40/71/71 38/72/72
f 8/13/13 40/71/71 9/14/14
f 8/13/13 37/70/70 40/71/71
f 7/12/12 37/70/70 8/13/13
f 7/12/12 65/69/69 37/70/70
f 66/11/11 65/69/69 7/12/12
f 66/11/11 33/68/68 65/69/69
f 6/10/10 33/68/68 66/11/11
f 6/10/10 31/67/67 33/68/68
f 5/9/9 31/67/67 6/10/10
f 5/9/9 32/66/66 31/67/67
f 67/8/8 32/66/66 5/9/9
f 67/8/8 30/65/65 32/66/66
f 4/7/7 30/65/65 67/8/8
f 4/7/7 29/64/64 30/65/65
f 3/6/6 29/64/64 4/7/7
f 3/6/6 68/63/63 29/64/64
f 69/5/5 68/63/63 3/6/6
f 69/5/5 26/62/62 68/63/63
f 2/4/4 26/62/62 69/5/5
f 2/4/4 21/61/61 26/62/62
f 1/2/2 21/61/61 2/4/4
f 1/2/2 62/59/59 21/61/61
f 61/1/1 62/59/59 1/2/2
f 70/55/55 105/98/83 106/57/57
f 71/25/25 105/98/83 70/55/55
f 71/25/25 91/99/84 105/98/83
f 43/24/24 91/99/84 71/25/25
f 43/24/24 60/97/82 91/99/84
f 77/83/75 78/100/85 79/85/76
f 72/101/86 78/100/85 77/83/75
f 72/101/86 98/102/87 78/100/85
f 73/103/88 98/102/87 72/101/86
f 73/103/88 109/104/89 98/102/87
f 76/105/90 109/104/89 73/103/88
f 76/105/90 108/58/58 109/104/89
f 74/28/28 108/58/58 76/105/90
f 74/28/28 19/56/56 108/58/58
f 75/30/30 19/56/56 74/28/28
f 75/30/30 46/54/54 19/56/56
f 76/105/90 50/29/29 74/28/28
f 73/103/88 50/29/29 76/105/90
f 73/103/88 52/81/74 50/29/29
f 72/101/86 52/81/74 73/103/88
f 72/101/86 77/83/75 52/81/74
f 97/106/91 78/100/85 98/102/87
f 80/107/92 78/100/85 97/106/91
f 80/107/92 79/85/76 78/100/85
f 81/87/77 79/85/76 80/107/92
f 83/108/93 80/107/92 97/106/91
f 94/109/94 80/107/92 83/108/93
f 94/109/94 81/87/77 80/107/92
f 92/89/78 81/87/77 94/109/94
f 101/110/95 82/111/96 83/108/93
f 84/112/97 82/111/96 101/110/95
f 84/112/97 93/91/79 82/111/96
f 86/93/80 93/91/79 84/112/97
f 89/113/98 84/112/97 101/110/95
f 85/114/99 84/112/97 89/113/98
f 85/114/99 86/93/80 84/112/97
f 87/95/81 86/93/80 85/114/99
f 85/114/99 88/115/100 87/95/81
f 89/113/98 88/115/100 85/114/99
f 89/113/98 90/116/101 88/115/100
f 88/115/100 60/97/82 87/95/81
f 88/115/100 91/99/84 60/97/82
f 90/116/101 91/99/84 88/115/100
f 90/116/101 105/98/83 91/99/84
f 92/89/78 82/111/96 93/91/79
f 94/109/94 82/111/96 92/89/78
f 94/109/94 83/108/93 82/111/96
f 98/117/87 109/118/89 95/119/102
f 95/119/102 96/120/103 98/117/87
f 97/121/91 98/117/87 96/120/103
f 96/120/103 99/122/104 97/121/91
f 83/123/93 97/124/91 99/125/104
f 99/125/104 100/126/105 83/123/93
f 101/127/95 83/123/93 100/126/105
f 100/126/105 102/128/106 101/127/95
f 89/129/98 101/127/95 102/128/106
f 102/128/106 103/130/107 89/129/98
f 90/131/101 89/129/98 103/130/107
f 103/130/107 104/132/108 90/131/101
f 105/133/83 90/131/101 104/132/108
f 104/132/108 107/134/109 105/133/83
f 106/135/57 105/133/83 107/134/109
f 107/134/109 117/136/110 106/135/57
f 108/137/58 106/135/57 117/136/110
f 117/136/110 118/138/111 108/137/58
f 109/118/89 108/137/58 118/138/111
f 118/138/111 95/119/102 109/118/89
f 143/139/112 152/140/113 112/141/114
f 144/142/115 143/139/112 112/141/114
f 145/143/116 144/144/115 112/141/114
f 110/145/117 145/143/116 112/141/114
f 111/146/118 110/145/117 112/141/114
f 148/147/119 111/146/118 112/141/114
f 149/148/120 148/147/119 112/141/114
f 113/149/121 149/148/120 112/141/114
f 151/150/122 113/151/121 112/141/114
f 152/140/113 151/150/122 112/141/114
f 96/120/103 95/119/102 129/152/123
f 129/152/123 120/153/124 96/120/103
f 99/122/104 96/120/103 120/153/124
f 120/153/124 122/154/125 99/122/104
f 100/126/105 99/125/104 122/155/125
f 122/155/125 124/156/126 100/126/105
f 102/128/106 100/126/105 124/156/126
f 124/156/126 114/157/127 102/128/106
f 103/130/107 102/128/106 114/157/127
f 114/157/127 126/158/128 103/130/107
f 104/132/108 103/130/107 126/158/128
f 126/158/128 115/159/129 104/132/108
f 107/134/109 104/132/108 115/159/129
f 115/159/129 116/160/130 107/134/109
f 117/136/110 107/134/109 116/160/130
f 116/160/130 128/161/131 117/136/110
f 118/138/111 117/136/110 128/161/131
f 128/161/131 119/162/132 118/138/111
f 95/119/102 118/138/111 119/162/132
f 119/162/132 129/152/123 95/119/102
f 120/153/124 129/152/123 121/163/133
f 121/163/133 130/164/134 120/153/124
f 122/154/125 120/153/124 130/164/134
f 130/164/134 123/165/135 122/154/125
f 124/156/126 122/155/125 123/166/135
f 123/166/135 135/167/136 124/156/126
f 114/157/127 124/156/126 135/167/136
f 135/167/136 125/168/137 114/157/127
f 126/158/128 114/157/127 125/168/137
f 125/168/137 136/169/138 126/158/128
f 115/159/129 126/158/128 136/169/138
f 136/169/138 137/170/139 115/159/129
f 116/160/130 115/159/129 137/170/139
f 137/170/139 138/171/140 116/160/130
f 128/161/131 116/160/130 138/171/140
f 138/171/140 127/172/141 128/161/131
f 119/162/132 128/161/131 127/172/141
f 127/172/141 141/173/142 119/162/132
f 129/152/123 119/162/132 141/173/142
f 141/173/142 121/163/133 129/152/123
f 130/164/134 121/163/133 131/174/143
f 131/174/143 132/175/144 130/164/134
f 123/165/135 130/164/134 132/175/144
f 132/175/144 133/176/145 123/165/135
f 135/167/136 123/166/135 133/177/145
f 133/177/145 134/178/146 135/167/136
f 125/168/137 135/167/136 134/178/146
f 134/178/146 147/179/147 125/168/137
f 136/169/138 125/168/137 147/179/147
f 147/179/147 146/180/148 136/169/138
f 137/170/139 136/169/138 146/180/148
f 146/180/148 139/181/149 137/170/139
f 138/171/140 137/170/139 139/181/149
f 139/181/149 140/182/150 138/171/140
f 127/172/141 138/171/140 140/182/150
f 140/182/150 150/183/151 127/172/141
f 141/173/142 127/172/141 150/183/151
f 150/183/151 142/184/152 141/173/142
f 121/163/133 141/173/142 142/184/152
f 142/184/152 131/174/143 121/163/133
f 132/175/144 131/174/143 152/185/113
f 152/185/113 143/186/112 132/175/144
f 133/176/145 132/175/144 143/186/112
f 143/186/112 144/187/115 133/176/145
f 147/179/147 134/178/146 145/188/116
f 145/188/116 110/189/117 147/179/147
f 146/180/148 147/179/147 110/189/117
f 110/189/117 111/190/118 146/180/148
f 139/181/149 146/180/148 111/190/118
f 111/190/118 148/191/119 139/181/149
f 140/182/150 139/181/149 148/191/119
f 148/191/119 149/192/120 140/182/150
f 150/183/151 140/182/150 149/192/120
f 149/192/120 113/193/121 150/183/151
f 142/184/152 150/183/151 113/193/121
f 113/193/121 151/194/122 142/184/152
f 131/174/143 142/184/152 151/194/122
f 151/194/122 152/185/113 131/174/143
f 144/195/115 134/178/146 133/177/145
f 145/188/116 134/178/146 144/195/115
