# 3ds Max Wavefront OBJ Exporter v0.99 - (c)2007 guruware
# File Created: 08.11.2023 21:16:39

mtllib kirby-pata.mtl

#
# object 6
#

v  -0.0043 0.0204 -0.0058
v  0.0077 0.0041 0.0341
v  0.0237 0.0054 -0.0019
v  0.0227 -0.0078 0.0200
v  -0.0363 0.0072 0.0201
v  -0.0183 0.0041 0.0391
v  0.0237 0.0055 -0.0299
v  0.0157 0.0086 -0.0369
v  0.0237 -0.0055 -0.0299
v  0.0307 -0.0056 -0.0109
v  0.0247 -0.0187 0.0060
v  0.0247 -0.0165 -0.0310
v  0.0157 -0.0235 -0.0231
v  0.0167 -0.0257 0.0029
v  0.0017 -0.0234 -0.0341
v  0.0057 -0.0144 -0.0470
v  -0.0183 -0.0164 -0.0400
v  -0.0143 -0.0235 -0.0301
v  -0.0383 -0.0186 -0.0120
v  -0.0303 -0.0256 -0.0101
v  -0.0403 -0.0188 0.0220
v  -0.0303 -0.0257 0.0149
v  0.0037 -0.0258 0.0259
v  -0.0333 -0.0189 0.0350
v  0.0077 -0.0189 0.0370
v  -0.0053 -0.0189 0.0450
v  -0.0203 -0.0189 0.0430
v  -0.0173 -0.0259 0.0319
v  -0.0213 -0.0079 0.0460
v  -0.0353 -0.0079 0.0370
v  0.0137 -0.0089 0.0340
v  -0.0043 -0.0090 0.0480
v  -0.0333 -0.0045 -0.0289
v  -0.0443 -0.0057 0.0011
v  -0.0193 -0.0034 -0.0429
v  -0.0073 -0.0024 -0.0479
v  -0.0163 0.0116 -0.0348
v  -0.0343 0.0094 -0.0099
v  -0.0433 -0.0068 0.0170
v  -0.0063 0.0116 -0.0398
v  0.0057 -0.0014 -0.0479
v  0.0177 -0.0034 -0.0399
v  0.0047 0.0116 -0.0408
# 43 vertices

vn 0.0794 0.9968 0.0059
vn 0.5098 0.6655 0.5452
vn 0.7189 0.6719 0.1784
vn 0.9061 0.0669 0.4178
vn -0.6637 0.7047 0.2508
vn -0.1755 0.7508 0.6367
vn 0.8088 0.5021 -0.3062
vn 0.5339 0.6436 -0.5484
vn 0.9025 0.0627 -0.4260
vn 0.9960 0.0804 -0.0393
vn 0.7642 -0.6222 0.1699
vn 0.7620 -0.4840 -0.4303
vn 0.2851 -0.9501 -0.1270
vn 0.2676 -0.9631 0.0271
vn 0.0815 -0.9025 -0.4229
vn 0.2181 -0.4326 -0.8748
vn -0.4198 -0.5609 -0.7136
vn -0.2277 -0.9203 -0.3182
vn -0.7553 -0.5629 -0.3355
vn -0.3027 -0.9446 -0.1270
vn -0.8362 -0.5258 0.1560
vn -0.2354 -0.9685 0.0808
vn 0.2603 -0.9332 0.2477
vn -0.5448 -0.6240 0.5602
vn 0.6337 -0.5074 0.5839
vn 0.1043 -0.6479 0.7546
vn -0.2673 -0.6115 0.7447
vn -0.1212 -0.9353 0.3326
vn -0.3344 -0.0080 0.9424
vn -0.7693 0.1730 0.6150
vn 0.7348 0.0395 0.6771
vn 0.3147 0.1383 0.9390
vn -0.8318 0.1259 -0.5406
vn -0.9870 0.1188 -0.1080
vn -0.5595 0.1412 -0.8167
vn -0.2529 0.1555 -0.9549
vn -0.4581 0.7033 -0.5436
vn -0.6651 0.7222 -0.1900
vn -0.9656 0.1258 0.2275
vn -0.1436 0.7396 -0.6576
vn 0.2536 0.2879 -0.9235
vn 0.7132 0.0793 -0.6964
vn 0.1743 0.7962 -0.5794
# 43 vertex normals

vt 0.0000 0.0000 0.0000
# 1 texture coords

o 6
g 6
usemtl wire_028089177
s 1
f 1/1/1 2/1/2 3/1/3 
f 4/1/4 3/1/3 2/1/2 
f 1/1/1 5/1/5 6/1/6 
f 6/1/6 2/1/2 1/1/1 
f 1/1/1 7/1/7 8/1/8 
f 7/1/7 1/1/1 3/1/3 
f 9/1/9 7/1/7 10/1/10 
f 3/1/3 10/1/10 7/1/7 
f 10/1/10 11/1/11 12/1/12 
f 4/1/4 11/1/11 10/1/10 
f 13/1/13 11/1/11 14/1/14 
f 13/1/13 12/1/12 11/1/11 
f 15/1/15 16/1/16 12/1/12 
f 15/1/15 12/1/12 13/1/13 
f 17/1/17 15/1/15 18/1/18 
f 17/1/17 16/1/16 15/1/15 
f 19/1/19 18/1/18 20/1/20 
f 19/1/19 17/1/17 18/1/18 
f 21/1/21 20/1/20 22/1/22 
f 21/1/21 19/1/19 20/1/20 
f 23/1/23 14/1/14 11/1/11 
f 24/1/24 21/1/21 22/1/22 
f 23/1/23 25/1/25 26/1/26 
f 23/1/23 11/1/11 25/1/25 
f 26/1/26 27/1/27 28/1/28 
f 26/1/26 28/1/28 23/1/23 
f 24/1/24 27/1/27 29/1/29 
f 28/1/28 27/1/27 24/1/24 
f 30/1/30 29/1/29 6/1/6 
f 29/1/29 30/1/30 24/1/24 
f 25/1/25 31/1/31 32/1/32 
f 26/1/26 25/1/25 32/1/32 
f 24/1/24 22/1/22 28/1/28 
f 32/1/32 31/1/31 2/1/2 
f 33/1/33 19/1/19 34/1/34 
f 17/1/17 19/1/19 33/1/33 
f 17/1/17 35/1/35 36/1/36 
f 33/1/33 35/1/35 17/1/17 
f 37/1/37 35/1/35 33/1/33 
f 36/1/36 35/1/35 37/1/37 
f 1/1/1 37/1/37 38/1/38 
f 34/1/34 38/1/38 33/1/33 
f 34/1/34 39/1/39 5/1/5 
f 38/1/38 5/1/5 1/1/1 
f 40/1/40 37/1/37 1/1/1 
f 21/1/21 39/1/39 34/1/34 
f 30/1/30 21/1/21 24/1/24 
f 5/1/5 39/1/39 30/1/30 
f 30/1/30 6/1/6 5/1/5 
f 30/1/30 39/1/39 21/1/21 
f 5/1/5 38/1/38 34/1/34 
f 33/1/33 38/1/38 37/1/37 
f 41/1/41 36/1/36 40/1/40 
f 34/1/34 19/1/19 21/1/21 
f 16/1/16 41/1/41 42/1/42 
f 36/1/36 41/1/41 16/1/16 
f 42/1/42 12/1/12 16/1/16 
f 16/1/16 17/1/17 36/1/36 
f 10/1/10 12/1/12 9/1/9 
f 42/1/42 9/1/9 12/1/12 
f 1/1/1 43/1/43 40/1/40 
f 7/1/7 9/1/9 42/1/42 
f 8/1/8 43/1/43 1/1/1 
f 41/1/41 43/1/43 8/1/8 
f 8/1/8 7/1/7 42/1/42 
f 36/1/36 37/1/37 40/1/40 
f 40/1/40 43/1/43 41/1/41 
f 8/1/8 42/1/42 41/1/41 
f 26/1/26 32/1/32 29/1/29 
f 6/1/6 29/1/29 32/1/32 
f 2/1/2 6/1/6 32/1/32 
f 29/1/29 27/1/27 26/1/26 
f 2/1/2 31/1/31 4/1/4 
f 25/1/25 11/1/11 4/1/4 
f 4/1/4 31/1/31 25/1/25 
f 15/1/15 13/1/13 18/1/18 
f 10/1/10 3/1/3 4/1/4 
f 20/1/20 13/1/13 14/1/14 
f 20/1/20 18/1/18 13/1/13 
f 22/1/22 14/1/14 23/1/23 
f 22/1/22 20/1/20 14/1/14 
f 22/1/22 23/1/23 28/1/28 
# 82 faces

