# 3ds Max Wavefront OBJ Exporter v0.99 - (c)2007 guruware
# File Created: 08.11.2023 21:14:14

mtllib kirby-brazo.mtl

#
# object 22
#

v  -0.0420 0.0214 0.0073
v  -0.0516 0.0095 0.0055
v  -0.0408 -0.0005 0.0179
v  -0.0207 0.0149 0.0232
v  -0.0572 -0.0060 -0.0023
v  -0.0525 0.0121 -0.0156
v  -0.0551 -0.0098 -0.0218
v  -0.0473 0.0018 -0.0335
v  -0.0474 -0.0220 -0.0257
v  -0.0370 0.0125 -0.0375
v  -0.0405 -0.0307 -0.0160
v  -0.0504 -0.0249 -0.0080
v  -0.0132 0.0013 -0.0450
v  -0.0346 -0.0117 -0.0386
v  -0.0306 -0.0276 -0.0258
v  -0.0289 -0.0295 -0.0047
v  -0.0226 0.0247 -0.0394
v  -0.0410 0.0246 -0.0168
v  -0.0278 0.0340 0.0073
v  -0.0426 -0.0269 0.0035
v  -0.0510 -0.0154 0.0074
v  -0.0349 -0.0198 0.0132
v  0.0038 -0.0152 -0.0040
v  -0.0276 0.0350 -0.0174
v  0.0013 -0.0126 -0.0293
v  -0.0045 -0.0026 0.0172
v  0.0158 0.0060 0.0177
v  0.0210 -0.0033 -0.0290
v  0.0231 0.0251 0.0188
v  0.0018 0.0225 0.0231
v  0.0091 0.0094 -0.0431
v  0.0165 -0.0071 -0.0052
v  0.0246 0.0320 -0.0315
v  0.0291 0.0143 -0.0357
v  0.0208 0.0422 -0.0135
v  0.0011 0.0311 -0.0380
v  -0.0044 0.0435 -0.0165
v  0.0203 0.0397 0.0074
v  0.0367 0.0303 -0.0094
v  -0.0041 0.0404 0.0087
# 40 vertices

vn -0.6631 0.5852 0.4667
vn -0.8356 0.2861 0.4690
vn -0.4837 0.0330 0.8746
vn -0.1947 0.1163 0.9740
vn -0.9890 -0.0501 0.1391
vn -0.8679 0.4601 -0.1871
vn -0.9390 -0.1402 -0.3142
vn -0.7058 0.0524 -0.7065
vn -0.5888 -0.5683 -0.5748
vn -0.5254 0.3372 -0.7812
vn -0.2591 -0.9584 -0.1197
vn -0.7890 -0.6134 0.0346
vn 0.0155 -0.2646 -0.9642
vn -0.2873 -0.3204 -0.9027
vn 0.1361 -0.8580 -0.4954
vn 0.2124 -0.9538 0.2127
vn -0.2991 0.5680 -0.7668
vn -0.6667 0.7136 -0.2152
vn -0.4295 0.8025 0.4142
vn -0.3183 -0.8522 0.4152
vn -0.7197 -0.3329 0.6092
vn -0.0026 -0.5968 0.8024
vn 0.4342 -0.8720 0.2259
vn -0.4721 0.8533 -0.2214
vn 0.3435 -0.7649 -0.5449
vn 0.1819 -0.4855 0.8551
vn 0.3050 -0.5133 0.8022
vn 0.4518 -0.7619 -0.4641
vn 0.3956 0.3748 0.8385
vn 0.0194 0.2839 0.9587
vn 0.2338 -0.0946 -0.9677
vn 0.5438 -0.8132 0.2073
vn 0.4655 0.5644 -0.6817
vn 0.5784 0.0463 -0.8145
vn 0.2652 0.9509 -0.1594
vn 0.0541 0.6755 -0.7353
vn -0.1693 0.9630 -0.2097
vn 0.3348 0.7991 0.4994
vn 0.7626 0.6453 -0.0438
vn -0.0736 0.9048 0.4194
# 40 vertex normals

vt 0.4999 0.5117 0.0000
vt 0.4999 0.5116 0.0000
vt 0.5000 0.5116 0.0000
vt 0.5000 0.5117 0.0000
vt 0.5001 0.5116 0.0000
vt 0.5001 0.5117 0.0000
vt 0.5001 0.5118 0.0000
vt 0.5000 0.5118 0.0000
vt 0.4999 0.5118 0.0000
vt 0.5001 0.5119 0.0000
# 10 texture coords

o 22
g 22
usemtl kirby_kirby
s 1
f 1/1/1 2/2/2 3/3/3 
f 1/1/1 3/3/3 4/4/4 
f 5/2/5 2/2/2 6/2/6 
f 6/2/6 2/2/2 1/1/1 
f 7/2/7 6/2/6 8/2/8 
f 7/2/7 5/2/5 6/2/6 
f 9/3/9 7/2/7 8/2/8 
f 10/1/10 8/2/8 6/2/6 
f 9/3/9 11/3/11 12/3/12 
f 7/2/7 9/3/9 12/3/12 
f 13/4/13 14/3/14 10/1/10 
f 14/3/14 8/2/8 10/1/10 
f 11/3/11 15/5/15 16/5/16 
f 9/3/9 14/3/14 15/5/15 
f 10/1/10 17/1/17 13/4/13 
f 15/5/15 14/3/14 13/4/13 
f 18/1/18 1/1/1 19/1/19 
f 17/1/17 10/1/10 18/1/18 
f 20/3/20 21/3/21 12/3/12 
f 16/5/16 20/3/20 11/3/11 
f 22/5/22 16/5/16 23/6/23 
f 21/3/21 20/3/20 22/5/22 
f 18/1/18 24/1/24 17/1/17 
f 15/5/15 25/6/25 23/6/23 
f 22/5/22 26/6/26 4/4/4 
f 20/3/20 16/5/16 22/5/22 
f 19/1/19 24/1/24 18/1/18 
f 20/3/20 12/3/12 11/3/11 
f 21/3/21 3/3/3 2/2/2 
f 4/4/4 19/1/19 1/1/1 
f 7/2/7 12/3/12 5/2/5 
f 21/3/21 5/2/5 12/3/12 
f 27/7/27 26/6/26 23/6/23 
f 23/6/23 25/6/25 28/7/28 
f 29/7/29 30/8/30 27/7/27 
f 26/6/26 27/7/27 30/8/30 
f 25/6/25 13/4/13 31/8/31 
f 32/6/32 27/7/27 23/6/23 
f 33/8/33 34/7/34 31/8/31 
f 28/7/28 31/8/31 34/7/34 
f 35/8/35 33/8/33 36/9/36 
f 31/8/31 36/9/36 33/8/33 
f 36/9/36 17/1/17 37/9/37 
f 17/1/17 36/9/36 31/8/31 
f 35/8/35 38/8/38 39/10/39 
f 34/7/34 33/8/33 39/10/39 
f 30/8/30 29/7/29 38/8/38 
f 39/10/39 38/8/38 29/7/29 
f 19/1/19 40/9/40 37/9/37 
f 40/9/40 38/8/38 35/8/35 
f 37/9/37 24/1/24 19/1/19 
f 19/1/19 4/4/4 30/8/30 
f 17/1/17 24/1/24 37/9/37 
f 33/8/33 35/8/35 39/10/39 
f 36/9/36 37/9/37 35/8/35 
f 35/8/35 37/9/37 40/9/40 
f 31/8/31 13/4/13 17/1/17 
f 30/8/30 40/9/40 19/1/19 
f 31/8/31 28/7/28 25/6/25 
f 38/8/38 40/9/40 30/8/30 
f 30/8/30 4/4/4 26/6/26 
f 13/4/13 25/6/25 15/5/15 
f 23/6/23 16/5/16 15/5/15 
f 23/6/23 28/7/28 32/6/32 
f 4/4/4 3/3/3 22/5/22 
f 23/6/23 26/6/26 22/5/22 
f 2/2/2 5/2/5 21/3/21 
f 22/5/22 3/3/3 21/3/21 
f 8/2/8 14/3/14 9/3/9 
f 15/5/15 11/3/11 9/3/9 
f 6/2/6 18/1/18 10/1/10 
f 1/1/1 18/1/18 6/2/6 
# 72 faces

